<svg width="1600" height="900" viewBox="0 0 1600 900" xmlns="http://www.w3.org/2000/svg" role="img" aria-label="FlowForge marketing funnel map">
  <defs>
    <linearGradient id="bg" x1="0" y1="0" x2="1" y2="1">
      <stop offset="0%" stop-color="#07121e"/>
      <stop offset="100%" stop-color="#0f2f49"/>
    </linearGradient>
    <marker id="arrow" markerWidth="12" markerHeight="12" refX="10" refY="6" orient="auto">
      <path d="M0,0 L12,6 L0,12 z" fill="#7bf0ff"/>
    </marker>
  </defs>

  <rect width="1600" height="900" fill="url(#bg)"/>
  <text x="70" y="88" font-family="Segoe UI, Arial, sans-serif" font-size="48" font-weight="700" fill="#dcfaff">FlowForge Conversion Funnel</text>

  <g font-family="Segoe UI, Arial, sans-serif" font-weight="700" font-size="24" fill="#d9f9ff">
    <rect x="70" y="150" width="180" height="72" rx="16" fill="#143a58" stroke="#47d5f3"/><text x="122" y="195">Hero</text>
    <rect x="300" y="150" width="180" height="72" rx="16" fill="#143a58" stroke="#47d5f3"/><text x="348" y="195">Trust</text>
    <rect x="530" y="150" width="240" height="72" rx="16" fill="#143a58" stroke="#47d5f3"/><text x="568" y="195">Before/After</text>
    <rect x="820" y="150" width="180" height="72" rx="16" fill="#143a58" stroke="#47d5f3"/><text x="874" y="195">Demo</text>
    <rect x="1050" y="150" width="200" height="72" rx="16" fill="#143a58" stroke="#47d5f3"/><text x="1096" y="195">Features</text>
    <rect x="1300" y="150" width="210" height="72" rx="16" fill="#143a58" stroke="#47d5f3"/><text x="1362" y="195">Roles</text>

    <rect x="210" y="350" width="250" height="72" rx="16" fill="#143a58" stroke="#47d5f3"/><text x="254" y="395">Architecture</text>
    <rect x="510" y="350" width="210" height="72" rx="16" fill="#143a58" stroke="#47d5f3"/><text x="572" y="395">Metrics</text>
    <rect x="770" y="350" width="200" height="72" rx="16" fill="#143a58" stroke="#47d5f3"/><text x="846" y="395">CTA</text>
    <rect x="1020" y="350" width="280" height="72" rx="16" fill="#143a58" stroke="#47d5f3"/><text x="1070" y="395">Email Capture</text>

    <rect x="560" y="560" width="260" height="78" rx="16" fill="#1a6b8f" stroke="#78edff"/><text x="614" y="608">Conversion</text>
  </g>

  <g stroke="#7bf0ff" stroke-width="6" fill="none" marker-end="url(#arrow)">
    <line x1="250" y1="186" x2="300" y2="186"/>
    <line x1="480" y1="186" x2="530" y2="186"/>
    <line x1="770" y1="186" x2="820" y2="186"/>
    <line x1="1000" y1="186" x2="1050" y2="186"/>
    <line x1="1250" y1="186" x2="1300" y2="186"/>

    <path d="M1405 222 C1405 300 1140 320 1140 350"/>
    <line x1="1020" y1="386" x2="970" y2="386"/>
    <line x1="770" y1="386" x2="720" y2="386"/>
    <line x1="510" y1="386" x2="460" y2="386"/>

    <path d="M335 422 C335 520 560 540 560 560"/>
    <path d="M1160 422 C1160 520 820 540 820 560"/>
  </g>

  <text x="78" y="840" font-family="Segoe UI, Arial, sans-serif" font-size="22" fill="#9fdceb">User journey: Hook -> Proof -> Experience -> Confidence -> Commitment.</text>
</svg>
